<?xml version="1.0" encoding="UTF-8"?>
<svg id="Layer_2" data-name="Layer 2" xmlns="http://www.w3.org/2000/svg" viewBox="0 0 284.91 358.98">
  <defs>
    <style>
      .cls-1 {
        fill: #010101;
        stroke-width: 0px;
      }
    </style>
  </defs>
  <g id="Layer_1-2" data-name="Layer 1">
    <g>
      <path class="cls-1" d="M146.67,46.32c-12.77,0-23.16-10.39-23.16-23.16S133.9,0,146.67,0s23.16,10.39,23.16,23.16-10.39,23.16-23.16,23.16ZM146.67,14c-5.05,0-9.16,4.11-9.16,9.16s4.11,9.16,9.16,9.16,9.16-4.11,9.16-9.16-4.11-9.16-9.16-9.16Z"/>
      <g>
        <path class="cls-1" d="M145.82,86.45h-1.06c-3.46,0-6.27-2.81-6.27-6.27v-20.02c0-4.05,3.28-7.33,7.33-7.33h0c4.05,0,7.33,3.28,7.33,7.33v18.96c0,4.05-3.28,7.33-7.33,7.33Z"/>
        <path class="cls-1" d="M145.82,86.96h-1.06c-3.73,0-6.77-3.04-6.77-6.77v-20.02c0-4.31,3.51-7.83,7.83-7.83s7.83,3.51,7.83,7.83v18.96c0,4.31-3.51,7.83-7.83,7.83ZM145.82,53.35c-3.76,0-6.83,3.06-6.83,6.83v20.02c0,3.18,2.59,5.77,5.77,5.77h1.06c3.76,0,6.83-3.06,6.83-6.83v-18.96c0-3.76-3.06-6.83-6.83-6.83Z"/>
      </g>
      <path class="cls-1" d="M175.27,221.88h-61.56c-18.28,0-33.16-14.88-33.16-33.16v-61.56c0-18.28,14.87-33.16,33.16-33.16h61.56c18.28,0,33.16,14.87,33.16,33.16v61.56c0,18.28-14.88,33.16-33.16,33.16ZM113.71,104c-12.77,0-23.16,10.39-23.16,23.16v61.56c0,12.77,10.39,23.16,23.16,23.16h61.56c12.77,0,23.16-10.39,23.16-23.16v-61.56c0-12.77-10.39-23.16-23.16-23.16h-61.56Z"/>
      <path class="cls-1" d="M64.15,181.45h-15.29c-5.52,0-10.01-4.61-10.01-10.27v-33.44c0-4.15,3.34-7.53,7.44-7.53h17.86c3.31,0,6,2.69,6,6s-2.69,6-6,6h-13.3v27.24h13.3c3.31,0,6,2.69,6,6s-2.69,6-6,6Z"/>
      <path class="cls-1" d="M242.97,179.96h-19.09c-3.31,0-6-2.69-6-6s2.69-6,6-6h13.09v-25.33h-14.58c-3.31,0-6-2.69-6-6s2.69-6,6-6h20.58c3.31,0,6,2.69,6,6v37.33c0,3.31-2.69,6-6,6Z"/>
      <path class="cls-1" d="M119.57,152.09c-8.48,0-15.37-6.9-15.37-15.37s6.9-15.37,15.37-15.37,15.37,6.9,15.37,15.37-6.9,15.37-15.37,15.37ZM119.57,133.35c-1.86,0-3.37,1.51-3.37,3.37s1.51,3.37,3.37,3.37,3.37-1.51,3.37-3.37-1.51-3.37-3.37-3.37Z"/>
      <path class="cls-1" d="M168.44,151.58c-8.48,0-15.37-6.9-15.37-15.37s6.9-15.37,15.37-15.37,15.37,6.9,15.37,15.37-6.9,15.37-15.37,15.37ZM168.44,132.83c-1.86,0-3.37,1.51-3.37,3.37s1.51,3.37,3.37,3.37,3.37-1.51,3.37-3.37-1.51-3.37-3.37-3.37Z"/>
      <path class="cls-1" d="M145.02,202.29c-11.33,0-21.45-5.73-26.94-10.65-2.47-2.21-2.68-6-.46-8.47,2.21-2.46,5.99-2.67,8.46-.48.13.11,5.16,4.47,12.1,6.53,8.67,2.57,16.19.51,22.99-6.29,2.34-2.34,6.14-2.34,8.48,0,2.34,2.34,2.34,6.14,0,8.48-8.02,8.02-16.63,10.88-24.63,10.88Z"/>
      <path class="cls-1" d="M172.73,356.66h-58.68c-13,0-23.57-10.57-23.57-23.57v-72.97c0-13,10.57-23.57,23.57-23.57h58.68c13,0,23.57,10.57,23.57,23.57v72.97c0,13-10.57,23.57-23.57,23.57ZM114.05,248.55c-6.38,0-11.57,5.19-11.57,11.57v72.97c0,6.38,5.19,11.57,11.57,11.57h58.68c6.38,0,11.57-5.19,11.57-11.57v-72.97c0-6.38-5.19-11.57-11.57-11.57h-58.68Z"/>
      <g>
        <path class="cls-1" d="M77.36,238.83H14.77c-3.31,0-6,2.69-6,6v21.44c0,3.31,2.69,6,6,6h7.39v6.66h-3.9c-3.31,0-6,2.69-6,6v37.25c0,3.31,2.69,6,6,6h3.9v9.96c-8.29,1.72-15.39,6.04-19.67,9.88-2.47,2.21-2.68,6-.46,8.47,1.19,1.32,2.82,2,4.47,2,1.43,0,2.86-.5,4-1.53.05-.04,4.93-4.3,11.75-6.42,2.12-.65,4.16-1.03,6.15-1.13.12,0,.25,0,.37-.02,6.13-.22,11.67,2.21,16.8,7.34,2.34,2.34,6.14,2.34,8.49,0,2.34-2.34,2.34-6.14,0-8.49-6.46-6.46-13.3-9.56-19.9-10.52v-9.54h3.9c3.31,0,6-2.69,6-6v-37.25c0-3.31-2.69-6-6-6h-3.9v-6.66h43.2c3.31,0,6-2.69,6-6v-21.44c0-3.31-2.69-6-6-6ZM24.26,316.17v-25.25h7.79v25.25h-7.79ZM71.36,260.27H20.77v-9.44h50.59v9.44Z"/>
        <path class="cls-1" d="M6.5,358.98c-1.85,0-3.61-.79-4.84-2.16-2.39-2.67-2.17-6.79.5-9.18,5.23-4.69,12.49-8.38,19.5-9.91v-9.06h-3.4c-3.58,0-6.5-2.92-6.5-6.5v-37.25c0-3.58,2.92-6.5,6.5-6.5h3.4v-5.66h-6.89c-3.58,0-6.5-2.92-6.5-6.5v-21.44c0-3.58,2.92-6.5,6.5-6.5h62.59c3.58,0,6.5,2.92,6.5,6.5v21.44c0,3.58-2.92,6.5-6.5,6.5h-42.7v5.66h3.4c3.58,0,6.5,2.92,6.5,6.5v37.25c0,3.58-2.92,6.5-6.5,6.5h-3.4v8.61c7.23,1.16,13.88,4.72,19.76,10.6,1.23,1.23,1.9,2.86,1.9,4.6s-.68,3.37-1.9,4.6c-2.54,2.53-6.66,2.53-9.19,0-5.05-5.05-10.41-7.4-16.43-7.19-.07,0-.18.01-.29.02-2.02.1-4.05.48-6.1,1.11-6.75,2.09-11.52,6.27-11.57,6.31-1.19,1.07-2.73,1.66-4.34,1.66ZM18.26,279.42c-3.03,0-5.5,2.47-5.5,5.5v37.25c0,3.03,2.47,5.5,5.5,5.5h4.4v10.87l-.4.08c-6.96,1.45-14.23,5.1-19.44,9.76-2.26,2.02-2.45,5.51-.42,7.77,1.04,1.16,2.54,1.83,4.1,1.83,1.36,0,2.66-.5,3.67-1.4.04-.04,5.04-4.39,11.94-6.52,2.13-.66,4.24-1.05,6.27-1.15.18,0,.26,0,.35-.02,6.33-.23,11.95,2.22,17.21,7.48,2.14,2.14,5.63,2.14,7.78,0,1.04-1.04,1.61-2.42,1.61-3.89s-.57-2.85-1.61-3.89c-5.84-5.84-12.44-9.33-19.62-10.38l-.43-.06v-10.47h4.4c3.03,0,5.5-2.47,5.5-5.5v-37.25c0-3.03-2.47-5.5-5.5-5.5h-4.4v-7.66h43.7c3.03,0,5.5-2.47,5.5-5.5v-21.44c0-3.03-2.47-5.5-5.5-5.5H14.77c-3.03,0-5.5,2.47-5.5,5.5v21.44c0,3.03,2.47,5.5,5.5,5.5h7.89v7.66h-4.4ZM32.55,316.67h-8.79v-26.25h8.79v26.25ZM24.76,315.67h6.79v-24.25h-6.79v24.25ZM71.86,260.77H20.27v-10.44h51.59v10.44ZM21.27,259.77h49.59v-8.44H21.27v8.44Z"/>
      </g>
      <g>
        <path class="cls-1" d="M201.54,244.83v21.44c0,3.31,2.69,6,6,6h43.2v6.66h-3.9c-3.31,0-6,2.69-6,6v37.25c0,3.31,2.69,6,6,6h3.9v9.54c-6.6.96-13.44,4.06-19.9,10.52-2.34,2.34-2.34,6.14,0,8.49,2.34,2.34,6.14,2.34,8.49,0,5.13-5.13,10.67-7.56,16.8-7.34.12.01.25.01.37.02,1.99.1,4.03.48,6.15,1.13,6.83,2.11,11.71,6.37,11.75,6.42,1.15,1.03,2.58,1.53,4,1.53,1.65,0,3.29-.67,4.47-2,2.21-2.47,2-6.26-.46-8.47-4.28-3.84-11.38-8.16-19.67-9.88v-9.96h3.9c3.31,0,6-2.69,6-6v-37.25c0-3.31-2.69-6-6-6h-3.9v-6.66h7.39c3.31,0,6-2.69,6-6v-21.44c0-3.31-2.69-6-6-6h-62.59c-3.31,0-6,2.69-6,6ZM252.85,316.17v-25.25h7.79v25.25h-7.79ZM213.54,250.83h50.59v9.44h-50.59v-9.44Z"/>
        <path class="cls-1" d="M278.4,358.98c-1.6,0-3.14-.59-4.34-1.66-.05-.04-4.91-4.25-11.57-6.31-2.05-.63-4.08-1.01-6.03-1.11-.18,0-.29,0-.4-.02-5.97-.21-11.34,2.14-16.4,7.2-2.54,2.53-6.66,2.53-9.19,0-1.23-1.23-1.9-2.86-1.9-4.6s.68-3.37,1.9-4.6c5.88-5.88,12.52-9.44,19.76-10.6v-8.61h-3.4c-3.58,0-6.5-2.92-6.5-6.5v-37.25c0-3.58,2.92-6.5,6.5-6.5h3.4v-5.66h-42.7c-3.58,0-6.5-2.92-6.5-6.5v-21.44c0-3.58,2.92-6.5,6.5-6.5h62.59c3.58,0,6.5,2.92,6.5,6.5v21.44c0,3.58-2.92,6.5-6.5,6.5h-6.89v5.66h3.4c3.58,0,6.5,2.92,6.5,6.5v37.25c0,3.58-2.92,6.5-6.5,6.5h-3.4v9.06c7.01,1.53,14.27,5.22,19.5,9.91,1.29,1.16,2.06,2.75,2.15,4.49s-.49,3.4-1.65,4.69c-1.23,1.37-3,2.16-4.84,2.16ZM255.36,348.86c.26,0,.52,0,.78.01.12.01.21.01.29.02,2.12.11,4.23.5,6.36,1.16,6.97,2.16,11.9,6.48,11.94,6.52,1.01.9,2.31,1.4,3.67,1.4,1.56,0,3.06-.67,4.1-1.83.98-1.09,1.48-2.5,1.4-3.97-.08-1.47-.73-2.82-1.82-3.8-5.21-4.67-12.47-8.31-19.43-9.76l-.4-.08v-10.87h4.4c3.03,0,5.5-2.47,5.5-5.5v-37.25c0-3.03-2.47-5.5-5.5-5.5h-4.4v-7.66h7.89c3.03,0,5.5-2.47,5.5-5.5v-21.44c0-3.03-2.47-5.5-5.5-5.5h-62.59c-3.03,0-5.5,2.47-5.5,5.5v21.44c0,3.03,2.47,5.5,5.5,5.5h43.7v7.66h-4.4c-3.03,0-5.5,2.47-5.5,5.5v37.25c0,3.03,2.47,5.5,5.5,5.5h4.4v10.47l-.43.06c-7.18,1.05-13.78,4.54-19.62,10.38-1.04,1.04-1.61,2.42-1.61,3.89s.57,2.85,1.61,3.89c2.15,2.14,5.63,2.14,7.78,0,5.04-5.04,10.41-7.5,16.39-7.5ZM261.14,316.67h-8.79v-26.25h8.79v26.25ZM253.35,315.67h6.79v-24.25h-6.79v24.25ZM264.63,260.77h-51.59v-10.44h51.59v10.44ZM214.04,259.77h49.59v-8.44h-49.59v8.44Z"/>
      </g>
    </g>
  </g>
</svg>