<?xml version="1.0" encoding="UTF-8"?>
<svg id="Layer_1" data-name="Layer 1" xmlns="http://www.w3.org/2000/svg" version="1.1" viewBox="0 0 595.28 841.89">
  <defs>
    <style>
      .cls-1 {
        stroke-width: 14px;
      }

      .cls-1, .cls-2, .cls-3 {
        fill: none;
      }

      .cls-1, .cls-2, .cls-3, .cls-4 {
        stroke: #010101;
      }

      .cls-1, .cls-3, .cls-4 {
        stroke-miterlimit: 10;
      }

      .cls-2 {
        stroke-linecap: round;
        stroke-linejoin: round;
        stroke-width: 12px;
      }

      .cls-3 {
        stroke-width: 10px;
      }

      .cls-4 {
        fill: #010101;
      }
    </style>
  </defs>
  <circle class="cls-1" cx="301.86" cy="261.37" r="16.16"/>
  <path class="cls-4" d="M301.01,291.05h0c4.04,0,7.33,3.28,7.33,7.33v18.96c0,4.04-3.28,7.33-7.33,7.33h-1.06c-3.46,0-6.27-2.81-6.27-6.27v-20.02c0-4.04,3.28-7.33,7.33-7.33Z"/>
  <rect class="cls-3" x="240.74" y="337.21" width="117.87" height="117.87" rx="28.16" ry="28.16"/>
  <path class="cls-2" d="M219.34,374.41h-17.86c-.8,0-1.44.69-1.44,1.53v33.44c0,2.36,1.8,4.27,4.01,4.27h15.29"/>
  <polyline class="cls-2" points="377.59 374.83 398.16 374.83 398.16 412.17 379.07 412.17"/>
  <circle class="cls-2" cx="274.75" cy="374.92" r="9.37"/>
  <circle class="cls-2" cx="323.62" cy="374.41" r="9.37"/>
  <path class="cls-2" d="M277.27,425.38s22.85,20.48,43.32,0"/>
  <rect class="cls-2" x="251.67" y="480.75" width="93.82" height="108.11" rx="17.57" ry="17.57"/>
  <path class="cls-4" d="M232.55,477.03h-62.59c-3.31,0-6,2.69-6,6v21.44c0,3.31,2.69,6,6,6h7.39v6.66h-3.9c-3.31,0-6,2.69-6,6v37.25c0,3.31,2.69,6,6,6h3.9v9.96c-8.29,1.72-15.39,6.04-19.67,9.88-2.47,2.21-2.68,6-.46,8.47,1.19,1.32,2.82,2,4.47,2,1.43,0,2.86-.5,4-1.53.05-.04,4.93-4.3,11.75-6.42,2.12-.65,4.16-1.03,6.15-1.13.12,0,.25,0,.37-.02,6.13-.22,11.67,2.21,16.8,7.34,2.34,2.34,6.14,2.34,8.49,0,2.34-2.34,2.34-6.14,0-8.49-6.46-6.46-13.3-9.56-19.9-10.52v-9.54h3.9c3.31,0,6-2.69,6-6v-37.25c0-3.31-2.69-6-6-6h-3.9v-6.66h43.2c3.31,0,6-2.69,6-6v-21.44c0-3.31-2.69-6-6-6ZM179.45,554.38v-25.25h7.79v25.25h-7.79ZM226.55,498.47h-50.59v-9.44h50.59v9.44Z"/>
  <path class="cls-4" d="M356.73,483.03v21.44c0,3.31,2.69,6,6,6h43.2v6.66h-3.9c-3.31,0-6,2.69-6,6v37.25c0,3.31,2.69,6,6,6h3.9v9.54c-6.6.96-13.44,4.06-19.9,10.52-2.34,2.34-2.34,6.14,0,8.49,2.34,2.34,6.14,2.34,8.49,0,5.13-5.13,10.67-7.56,16.8-7.34.12.01.25.01.37.02,1.99.1,4.03.48,6.15,1.13,6.83,2.11,11.71,6.37,11.75,6.42,1.15,1.03,2.58,1.53,4,1.53,1.65,0,3.29-.67,4.47-2,2.21-2.47,2-6.26-.46-8.47-4.28-3.84-11.38-8.16-19.67-9.88v-9.96h3.9c3.31,0,6-2.69,6-6v-37.25c0-3.31-2.69-6-6-6h-3.9v-6.66h7.39c3.31,0,6-2.69,6-6v-21.44c0-3.31-2.69-6-6-6h-62.59c-3.31,0-6,2.69-6,6ZM408.03,554.38v-25.25h7.79v25.25h-7.79ZM368.73,489.03h50.59v9.44h-50.59v-9.44Z"/>
</svg>